# Blender v2.92.0 OBJ File: 'greek.blend'
# www.blender.org
o chain_Plane.001
v -0.500000 -0.500000 -0.000000
v 0.500000 -0.500000 -0.000000
v -0.500000 0.500000 0.000000
v 0.500000 0.500000 0.000000
v 0.000000 -0.500000 0.500000
v 0.000000 -0.500000 -0.500000
v 0.000000 0.500000 0.500000
v 0.000000 0.500000 -0.500000
vt -0.000000 -0.093750
vt 1.000000 -0.093750
vt 1.000000 0.906250
vt -0.000000 0.906250
vt -0.000000 0.031250
vt 1.000000 0.031250
vt 1.000000 1.031250
vt -0.000000 1.031250
vn 0.0000 -0.0000 1.0000
vn 1.0000 0.0000 0.0000
g chain_Plane.001_greek_chain.png
s off
f 1/1/1 2/2/1 4/3/1 3/4/1
f 5/5/2 6/6/2 8/7/2 7/8/2
