# Blender v2.92.0 OBJ File: 'greek.blend'
# www.blender.org
o fire_bowl_Cube.003
v -0.375000 -0.496094 0.375000
v -0.500000 -0.246094 0.500000
v -0.375000 -0.496094 -0.375000
v -0.500000 -0.246094 -0.500000
v 0.375000 -0.496094 0.375000
v 0.500000 -0.246094 0.500000
v 0.375000 -0.496094 -0.375000
v 0.500000 -0.246094 -0.500000
v -0.176777 0.191406 0.176777
v -0.176777 -0.308594 0.176777
v 0.176777 0.191406 -0.176777
v 0.176777 -0.308594 -0.176777
v -0.176777 -0.308594 -0.176777
v 0.176777 -0.308594 0.176777
v -0.176777 0.191406 -0.176777
v 0.176777 0.191406 0.176777
v 0.144088 0.187608 -0.250000
v 0.144088 0.187608 0.250000
v 0.230912 -0.304796 -0.250000
v 0.230912 -0.304796 0.250000
v -0.144088 0.187608 0.250000
v -0.144088 0.187608 -0.250000
v -0.230912 -0.304796 0.250000
v -0.230912 -0.304796 -0.250000
v 0.250000 -0.304796 -0.230912
v -0.250000 -0.304796 -0.230912
v 0.250000 0.187608 -0.144088
v -0.250000 0.187608 -0.144088
v -0.250000 -0.304796 0.230912
v 0.250000 -0.304796 0.230912
v -0.250000 0.187608 0.144088
v 0.250000 0.187608 0.144088
v -0.468750 -0.308594 0.468750
v -0.468750 -0.308594 -0.468750
v 0.468750 -0.308594 0.468750
v 0.468750 -0.308594 -0.468750
vt 0.375000 0.166667
vt 0.500000 0.055556
vt 0.500000 0.944444
vt 0.375000 0.833333
vt 0.125000 0.166667
vt 0.000000 0.055556
vt 0.000000 0.944444
vt 0.125000 0.833333
vt 0.375000 0.833333
vt 0.500000 0.944444
vt 0.500000 0.055556
vt 0.375000 0.166667
vt 0.125000 0.833333
vt 0.000000 0.944444
vt 0.000000 0.055556
vt 0.125000 0.166667
vt 0.062500 0.833333
vt 0.437500 0.833333
vt 0.437500 0.166667
vt 0.062500 0.166667
vt 0.968750 1.000000
vt 0.500000 1.000000
vt 0.500000 0.166667
vt 0.968750 0.166667
vt 0.000100 0.000100
vt 0.999900 0.000100
vt 0.999900 0.999900
vt 0.000100 0.999900
vt 0.999900 0.000100
vt 0.999900 0.999900
vt 0.000100 0.999900
vt 0.000100 0.000100
vt 0.000100 0.999900
vt 0.000100 0.000100
vt 0.999900 0.000100
vt 0.999900 0.999900
vt 0.000100 0.999900
vt 0.000100 0.000100
vt 0.999900 0.000100
vt 0.999900 0.999900
vt 0.999900 0.000100
vt 0.999900 0.999900
vt 0.000100 0.999900
vt 0.000100 0.000100
vt 0.999900 0.000100
vt 0.999900 0.999900
vt 0.000100 0.999900
vt 0.000100 0.000100
vn -0.8944 -0.4472 0.0000
vn 0.0000 -0.4472 -0.8944
vn 0.8944 -0.4472 0.0000
vn 0.0000 -0.4472 0.8944
vn 0.0000 -1.0000 0.0000
vn 0.7071 0.0000 0.7071
vn -0.7071 -0.0000 0.7071
vn 0.9848 0.1736 0.0000
vn -0.9848 0.1736 -0.0000
vn 0.0000 0.1736 -0.9848
vn -0.0000 0.1736 0.9848
g fire_bowl_Cube.003_greek_fire_bowl.png
s off
f 1/1/1 2/2/1 4/3/1 3/4/1
f 3/5/2 4/6/2 8/7/2 7/8/2
f 7/9/3 8/10/3 6/11/3 5/12/3
f 5/13/4 6/14/4 2/15/4 1/16/4
f 3/17/5 7/18/5 5/19/5 1/20/5
f 34/21/5 36/22/5 35/23/5 33/24/5
g fire_bowl_Cube.003_fire_basic_flame_animated.png
f 10/25/6 12/26/6 11/27/6 9/28/6
f 14/29/7 16/30/7 15/31/7 13/32/7
f 18/33/8 20/34/8 19/35/8 17/36/8
f 22/37/9 24/38/9 23/39/9 21/40/9
f 26/41/10 28/42/10 27/43/10 25/44/10
f 30/45/11 32/46/11 31/47/11 29/48/11
