# Blender v2.92.0 OBJ File: 'greek.blend'
# www.blender.org
o acroterion_Plane
v -0.500000 0.500000 -0.500000
v 0.500000 0.500000 -0.500000
v -0.500000 -0.500000 -0.500000
v 0.500000 -0.500000 -0.500000
v 0.500000 0.500000 -0.500000
v 0.500000 0.500000 0.500000
v 0.500000 -0.500000 -0.500000
v 0.500000 -0.500000 0.500000
vt 0.999900 0.999900
vt 0.000100 0.999900
vt 0.000100 0.000100
vt 0.999900 0.000100
vt 0.999900 0.999900
vt 0.000100 0.999900
vt 0.000100 0.000100
vt 0.999900 0.000100
vn 0.0000 -0.0000 -1.0000
vn 1.0000 -0.0000 0.0000
g acroterion_Plane_greek_acroterion
s off
f 1/1/1 2/2/1 4/3/1 3/4/1
g acroterion_Plane_greek_acroterion_corner
f 5/5/2 6/6/2 8/7/2 7/8/2
