# Blender v2.92.0 OBJ File: 'greek.blend'
# www.blender.org
o fire_bowl_hanging_Cube.009
v -0.250000 -1.496094 0.250000
v -0.500000 -1.246094 0.500000
v -0.250000 -1.496094 -0.250000
v -0.500000 -1.246094 -0.500000
v 0.250000 -1.496094 0.250000
v 0.500000 -1.246094 0.500000
v 0.250000 -1.496094 -0.250000
v 0.500000 -1.246094 -0.500000
v -0.176777 -0.808594 0.176777
v -0.176777 -1.308594 0.176777
v 0.176777 -0.808594 -0.176777
v 0.176777 -1.308594 -0.176777
v -0.176777 -1.308594 -0.176777
v 0.176777 -1.308594 0.176777
v -0.176777 -0.808594 -0.176777
v 0.176777 -0.808594 0.176777
v 0.144088 -0.812392 -0.250000
v 0.144088 -0.812392 0.250000
v 0.230912 -1.304796 -0.250000
v 0.230912 -1.304796 0.250000
v -0.144088 -0.812392 0.250000
v -0.144088 -0.812392 -0.250000
v -0.230912 -1.304796 0.250000
v -0.230912 -1.304796 -0.250000
v 0.250000 -1.304796 -0.230912
v -0.250000 -1.304796 -0.230912
v 0.250000 -0.812392 -0.144088
v -0.250000 -0.812392 -0.144088
v -0.250000 -1.304796 0.230912
v 0.250000 -1.304796 0.230912
v -0.250000 -0.812392 0.144088
v 0.250000 -0.812392 0.144088
v -0.437500 -1.308594 0.437500
v -0.437500 -1.308594 -0.437500
v 0.437500 -1.308594 0.437500
v 0.437500 -1.308594 -0.437500
v -0.982963 -1.120590 -0.000000
v -0.017037 -1.379410 -0.000000
v -0.513853 0.630150 0.000000
v 0.452072 0.371331 -0.000000
v -0.500000 -1.250000 0.500000
v -0.500000 -1.250000 -0.500000
v -0.030890 0.500741 0.500000
v -0.030890 0.500741 -0.500000
v 0.695060 -1.120590 0.695060
v 0.012047 -1.379410 0.012047
v 0.363349 0.630150 0.363349
v -0.319663 0.371331 -0.319663
v 0.707107 -1.250000 0.000000
v 0.000000 -1.250000 0.707107
v 0.375396 0.500741 -0.331711
v -0.331710 0.500741 0.375396
v 0.695060 -1.120590 -0.695060
v 0.012047 -1.379410 -0.012047
v 0.363349 0.630150 -0.363349
v -0.319663 0.371331 0.319663
v 0.000000 -1.250000 -0.707107
v 0.707107 -1.250000 -0.000000
v -0.331711 0.500741 -0.375396
v 0.375396 0.500741 0.331710
vt 0.133333 0.250000
vt -0.000000 0.000000
vt -0.000000 1.000000
vt 0.133333 0.750000
vt 0.533333 1.000000
vt 0.400000 0.750000
vt 0.533333 0.000000
vt 0.400000 0.250000
vt 1.000000 1.000000
vt 0.533333 1.000000
vt 0.533333 0.125000
vt 1.000000 0.125000
vt 0.000100 0.000100
vt 0.999900 0.000100
vt 0.999900 0.999900
vt 0.000100 0.999900
vt 0.999900 0.000100
vt 0.999900 0.999900
vt 0.000100 0.999900
vt 0.000100 0.000100
vt 0.000100 0.999900
vt 0.000100 0.000100
vt 0.999900 0.000100
vt 0.999900 0.999900
vt 0.000100 0.999900
vt 0.000100 0.000100
vt 0.999900 0.000100
vt 0.999900 0.999900
vt 0.999900 0.000100
vt 0.999900 0.999900
vt 0.000100 0.999900
vt 0.000100 0.000100
vt 0.999900 0.000100
vt 0.999900 0.999900
vt 0.000100 0.999900
vt 0.000100 0.000100
vt -0.000000 -0.500000
vt 1.000000 -0.500000
vt 1.000000 1.312500
vt -0.000000 1.312500
vt -0.000000 -0.375000
vt 1.000000 -0.375000
vt 1.000000 1.437500
vt -0.000000 1.437500
vt -0.000000 -0.500000
vt 1.000000 -0.500000
vt 1.000000 1.312500
vt -0.000000 1.312500
vt -0.000000 -0.375000
vt 1.000000 -0.375000
vt 1.000000 1.437500
vt -0.000000 1.437500
vt -0.000000 -0.500000
vt 1.000000 -0.500000
vt 1.000000 1.312500
vt -0.000000 1.312500
vt -0.000000 -0.375000
vt 1.000000 -0.375000
vt 1.000000 1.437500
vt -0.000000 1.437500
vn -0.7071 -0.7071 0.0000
vn 0.0000 -0.7071 -0.7071
vn 0.7071 -0.7071 0.0000
vn 0.0000 -0.7071 0.7071
vn 0.0000 -1.0000 0.0000
vn 0.7071 0.0000 0.7071
vn -0.7071 -0.0000 0.7071
vn 0.9848 0.1736 0.0000
vn -0.9848 0.1736 -0.0000
vn 0.0000 0.1736 -0.9848
vn -0.0000 0.1736 0.9848
vn 0.0000 -0.0000 1.0000
vn 0.9659 -0.2588 -0.0000
vn 0.7071 -0.0000 -0.7071
vn -0.6830 -0.2588 -0.6830
vn -0.7071 -0.0000 -0.7071
vn -0.6830 -0.2588 0.6830
g fire_bowl_hanging_Cube.009_greek_fire_bowl.png
s off
f 1/1/1 2/2/1 4/3/1 3/4/1
f 3/4/2 4/3/2 8/5/2 7/6/2
f 7/6/3 8/5/3 6/7/3 5/8/3
f 5/8/4 6/7/4 2/2/4 1/1/4
f 3/4/5 7/6/5 5/8/5 1/1/5
f 34/9/5 36/10/5 35/11/5 33/12/5
g fire_bowl_hanging_Cube.009_fire_basic_flame_animated.png
f 10/13/6 12/14/6 11/15/6 9/16/6
f 14/17/7 16/18/7 15/19/7 13/20/7
f 18/21/8 20/22/8 19/23/8 17/24/8
f 22/25/9 24/26/9 23/27/9 21/28/9
f 26/29/10 28/30/10 27/31/10 25/32/10
f 30/33/11 32/34/11 31/35/11 29/36/11
g fire_bowl_hanging_Cube.009_greek_chain.png
f 37/37/12 38/38/12 40/39/12 39/40/12
f 41/41/13 42/42/13 44/43/13 43/44/13
f 45/45/14 46/46/14 48/47/14 47/48/14
f 49/49/15 50/50/15 52/51/15 51/52/15
f 53/53/16 54/54/16 56/55/16 55/56/16
f 57/57/17 58/58/17 60/59/17 59/60/17
