# Blender v2.92.0 OBJ File: 'greek.blend'
# www.blender.org
o shutters_Cube.008
v -0.500000 -0.500000 0.500000
v -0.500000 0.500000 0.500000
v -0.500000 -0.500000 0.375000
v -0.500000 0.500000 0.375000
v 0.500000 -0.500000 0.500000
v 0.500000 0.500000 0.500000
v 0.500000 -0.500000 0.375000
v 0.500000 0.500000 0.375000
v -0.500000 -0.500000 0.375000
v -0.500000 0.500000 0.375000
v -0.500000 -0.500000 0.500000
v -0.500000 0.500000 0.500000
v 0.500000 -0.500000 0.375000
v 0.500000 0.500000 0.375000
v 0.500000 -0.500000 0.500000
v 0.500000 0.500000 0.500000
v -1.000000 -0.500000 0.500000
v -1.000000 0.500000 0.500000
v 1.000000 -0.500000 0.375000
v 1.000000 0.500000 0.375000
v 1.000000 0.500000 0.500000
v -1.000000 0.500000 0.375000
v 1.000000 -0.500000 0.500000
v -1.000000 -0.500000 0.375000
vt 1.000000 -0.000000
vt 1.000000 1.000000
vt 0.888889 1.000000
vt 0.888889 -0.000000
vt 0.888889 1.000000
vt 0.888889 -0.000000
vt 1.000000 -0.000000
vt 1.000000 1.000000
vt 0.888816 0.000094
vt 0.888816 0.999906
vt 0.000094 0.999906
vt 0.000094 0.000094
vt 0.888889 0.000000
vt 0.888889 1.000000
vt 0.000000 1.000000
vt 0.000000 0.000000
vt 0.888889 1.000000
vt 0.888889 -0.000000
vt 1.000000 -0.000000
vt 1.000000 1.000000
vt 0.888889 1.000000
vt 0.888889 -0.000000
vt 1.000000 -0.000000
vt 1.000000 1.000000
vt 1.000000 0.000000
vt 1.000000 1.000000
vt 0.888889 1.000000
vt 0.888889 0.000000
vt 1.000000 0.000000
vt 1.000000 1.000000
vt 0.888889 1.000000
vt 0.888889 0.000000
vt 1.000000 0.000000
vt 1.000000 1.000000
vt 0.888889 1.000000
vt 0.888889 0.000000
vt 0.888889 1.000000
vt 0.888889 0.000000
vt 1.000000 0.000000
vt 1.000000 1.000000
vt 0.444455 0.000094
vt 0.444455 0.999906
vt 0.000094 0.999906
vt 0.000094 0.000094
vt 0.444444 0.000000
vt 0.444444 1.000000
vt 0.000000 1.000000
vt 0.000000 0.000000
vt 0.888889 0.500000
vt 0.888889 -0.000000
vt 1.000000 -0.000000
vt 1.000000 0.500000
vt 0.888889 0.500000
vt 0.888889 -0.000000
vt 1.000000 -0.000000
vt 1.000000 0.500000
vt 0.888889 1.000000
vt 0.888889 0.500000
vt 1.000000 0.500000
vt 1.000000 1.000000
vt 0.888889 1.000000
vt 0.888889 0.500000
vt 1.000000 0.500000
vt 1.000000 1.000000
vt 0.888889 0.000000
vt 0.888889 1.000000
vt 0.444444 1.000000
vt 0.444444 0.000000
vt 0.888816 0.000094
vt 0.888816 0.999906
vt 0.444455 0.999906
vt 0.444455 0.000094
vn -1.0000 0.0000 0.0000
vn 1.0000 0.0000 0.0000
vn 0.0000 0.0000 -1.0000
vn 0.0000 0.0000 1.0000
vn 0.0000 -1.0000 0.0000
vn 0.0000 1.0000 0.0000
g shutters_Cube.008_greek_shutters_closed
s off
f 1/1/1 2/2/1 4/3/1 3/4/1
f 7/5/2 8/6/2 6/7/2 5/8/2
f 3/9/3 4/10/3 8/11/3 7/12/3
f 5/13/4 6/14/4 2/15/4 1/16/4
f 3/17/5 7/18/5 5/19/5 1/20/5
f 8/21/6 4/22/6 2/23/6 6/24/6
g shutters_Cube.008_greek_shutters_open
f 22/25/1 24/26/1 17/27/1 18/28/1
f 19/29/2 20/30/2 21/31/2 23/32/2
f 9/33/2 10/34/2 12/35/2 11/36/2
f 15/37/1 16/38/1 14/39/1 13/40/1
f 23/41/4 21/42/4 16/43/4 15/44/4
f 24/45/3 22/46/3 10/47/3 9/48/3
f 23/49/5 15/50/5 13/51/5 19/52/5
f 18/53/6 12/54/6 10/55/6 22/56/6
f 16/57/6 21/58/6 20/59/6 14/60/6
f 11/61/5 17/62/5 24/63/5 9/64/5
f 13/65/3 14/66/3 20/67/3 19/68/3
f 11/69/4 12/70/4 18/71/4 17/72/4
