# Blender v2.92.0 OBJ File: 'greek.blend'
# www.blender.org
o fire_bowl_Cube.003
v -0.250000 -0.496094 0.250000
v -0.500000 -0.246094 0.500000
v -0.250000 -0.496094 -0.250000
v -0.500000 -0.246094 -0.500000
v 0.250000 -0.496094 0.250000
v 0.500000 -0.246094 0.500000
v 0.250000 -0.496094 -0.250000
v 0.500000 -0.246094 -0.500000
v -0.176777 0.191406 0.176777
v -0.176777 -0.308594 0.176777
v 0.176777 0.191406 -0.176777
v 0.176777 -0.308594 -0.176777
v -0.176777 -0.308594 -0.176777
v 0.176777 -0.308594 0.176777
v -0.176777 0.191406 -0.176777
v 0.176777 0.191406 0.176777
v 0.144088 0.187608 -0.250000
v 0.144088 0.187608 0.250000
v 0.230912 -0.304796 -0.250000
v 0.230912 -0.304796 0.250000
v -0.144088 0.187608 0.250000
v -0.144088 0.187608 -0.250000
v -0.230912 -0.304796 0.250000
v -0.230912 -0.304796 -0.250000
v 0.250000 -0.304796 -0.230912
v -0.250000 -0.304796 -0.230912
v 0.250000 0.187608 -0.144088
v -0.250000 0.187608 -0.144088
v -0.250000 -0.304796 0.230912
v 0.250000 -0.304796 0.230912
v -0.250000 0.187608 0.144088
v 0.250000 0.187608 0.144088
v -0.437500 -0.308594 0.437500
v -0.437500 -0.308594 -0.437500
v 0.437500 -0.308594 0.437500
v 0.437500 -0.308594 -0.437500
vt 0.133333 0.250000
vt -0.000000 0.000000
vt -0.000000 1.000000
vt 0.133333 0.750000
vt 0.533333 1.000000
vt 0.400000 0.750000
vt 0.533333 0.000000
vt 0.400000 0.250000
vt 1.000000 1.000000
vt 0.533333 1.000000
vt 0.533333 0.125000
vt 1.000000 0.125000
vt 0.000100 0.000100
vt 0.999900 0.000100
vt 0.999900 0.999900
vt 0.000100 0.999900
vt 0.999900 0.000100
vt 0.999900 0.999900
vt 0.000100 0.999900
vt 0.000100 0.000100
vt 0.000100 0.999900
vt 0.000100 0.000100
vt 0.999900 0.000100
vt 0.999900 0.999900
vt 0.000100 0.999900
vt 0.000100 0.000100
vt 0.999900 0.000100
vt 0.999900 0.999900
vt 0.999900 0.000100
vt 0.999900 0.999900
vt 0.000100 0.999900
vt 0.000100 0.000100
vt 0.999900 0.000100
vt 0.999900 0.999900
vt 0.000100 0.999900
vt 0.000100 0.000100
vn -0.7071 -0.7071 0.0000
vn 0.0000 -0.7071 -0.7071
vn 0.7071 -0.7071 0.0000
vn 0.0000 -0.7071 0.7071
vn 0.0000 -1.0000 0.0000
vn 0.7071 0.0000 0.7071
vn -0.7071 -0.0000 0.7071
vn 0.9848 0.1736 0.0000
vn -0.9848 0.1736 -0.0000
vn 0.0000 0.1736 -0.9848
vn -0.0000 0.1736 0.9848
g fire_bowl_Cube.003_greek_fire_bowl.png
s off
f 1/1/1 2/2/1 4/3/1 3/4/1
f 3/4/2 4/3/2 8/5/2 7/6/2
f 7/6/3 8/5/3 6/7/3 5/8/3
f 5/8/4 6/7/4 2/2/4 1/1/4
f 3/4/5 7/6/5 5/8/5 1/1/5
f 34/9/5 36/10/5 35/11/5 33/12/5
g fire_bowl_Cube.003_fire_basic_flame_animated.png
f 10/13/6 12/14/6 11/15/6 9/16/6
f 14/17/7 16/18/7 15/19/7 13/20/7
f 18/21/8 20/22/8 19/23/8 17/24/8
f 22/25/9 24/26/9 23/27/9 21/28/9
f 26/29/10 28/30/10 27/31/10 25/32/10
f 30/33/11 32/34/11 31/35/11 29/36/11
